<?xml version="1.0" encoding="UTF-8"?>
<svg width="56px" height="56px" viewBox="0 0 56 56" version="1.1" xmlns="http://www.w3.org/2000/svg" xmlns:xlink="http://www.w3.org/1999/xlink">
    <!-- Generator: Sketch 50.2 (55047) - http://www.bohemiancoding.com/sketch -->
    <title>hashtag-indicator</title>
    <desc>Created with Sketch.</desc>
    <defs></defs>
    <g id="Homepage" stroke="none" stroke-width="1" fill="none" fill-rule="evenodd">
        <g id="Homepage-/-0-Homepage_Before-Login" transform="translate(-420.000000, -1162.000000)">
            <g id="trending" transform="translate(70.000000, 837.000000)">
                <g id="tags" transform="translate(350.000000, 325.000000)">
                    <g id="hashTagIndicator">
                        <rect id="Rectangle" fill="#F25A2B" x="4.66666667" y="4.66666667" width="51.3333333" height="51.3333333"></rect>
                        <rect id="Rectangle" fill="#0C0C17" x="0" y="0" width="51.3333333" height="51.3333333"></rect>
                        <path d="M17.4766667,32.8922222 L11.6666667,32.8922222 L12.4016667,29.7772222 L18.1066667,29.7772222 L19.8566667,22.8822222 L13.9766667,22.8822222 L14.7116667,19.7672222 L20.5216667,19.7672222 L22.0616667,13.2222222 L25.5966667,13.2222222 L24.0916667,19.7672222 L30.1466667,19.7672222 L31.6866667,13.2222222 L35.1866667,13.2222222 L33.7166667,19.7672222 L39.5616667,19.7672222 L39.5616667,19.8022222 L38.8616667,22.8822222 L33.0516667,22.8822222 L31.4066667,29.7772222 L37.2516667,29.7772222 L36.5166667,32.8922222 L30.7766667,32.8922222 L29.3766667,38.8422222 L25.6666667,38.8422222 L27.1016667,32.8922222 L21.1166667,32.8922222 L19.7516667,38.8422222 L16.0416667,38.8422222 L17.4766667,32.8922222 Z M27.7316667,29.7772222 L29.4816667,22.8822222 L23.4266667,22.8822222 L21.7466667,29.7772222 L27.7316667,29.7772222 Z" id="#" fill="#FFFFFF"></path>
                    </g>
                </g>
            </g>
        </g>
    </g>
</svg>