<?xml version="1.0" encoding="UTF-8"?>
<svg width="37px" height="44px" viewBox="0 0 37 44" version="1.1" xmlns="http://www.w3.org/2000/svg" xmlns:xlink="http://www.w3.org/1999/xlink">
    <!-- Generator: Sketch 50.2 (55047) - http://www.bohemiancoding.com/sketch -->
    <title>logo</title>
    <desc>Created with Sketch.</desc>
    <defs></defs>
    <g id="Homepage" stroke="none" stroke-width="1" fill="none" fill-rule="evenodd">
        <g id="Homepage-/-0-Homepage_Before-Login" transform="translate(-70.000000, -5132.000000)" fill="#FFFFFF">
            <g id="footer" transform="translate(0.000000, 5105.000000)">
                <path d="M97.952989,55.1707813 L90.063645,59.7255256 C89.8074623,59.8743405 89.5008956,59.973938 89.1765008,60.0363318 L89.169137,48.2473995 L99.3811788,42.3374319 C99.492411,42.653276 99.5617857,42.9737707 99.5617857,43.2756634 L99.5617857,52.3859271 C99.5617857,53.4063169 98.838583,54.6603926 97.952989,55.1707813 Z M78.9567076,55.1707813 C78.0718887,54.6603926 77.3486859,53.4063169 77.3486859,52.3859271 L77.3486859,43.2756634 C77.3486859,42.9722205 77.4184483,42.6490131 77.5316183,42.3296811 L87.723119,48.2466244 L87.7316455,60.0355567 C87.4084134,59.9731629 87.1030094,59.8731779 86.8464391,59.7255256 L78.9567076,55.1707813 Z M86.8464391,35.9352898 C87.7316455,35.4249011 89.1792138,35.4249011 90.063645,35.9352898 L97.952989,40.489259 C98.2049085,40.6353612 98.4409377,40.8446321 98.6525501,41.0880066 L88.4463218,46.995649 L78.2610221,41.0829685 C78.4734097,40.8423069 78.7067259,40.6345861 78.9567076,40.489259 L86.8464391,35.9352898 Z M90.1089905,27.3830822 C89.2237841,26.8723059 87.7762159,26.8723059 86.8921722,27.3830822 L71.6084092,36.2069546 C70.7239779,36.7169557 70,37.9702564 70,38.9921964 L70,56.6387785 C70,57.6607185 70.7239779,58.9132441 71.6084092,59.4244079 L80.6476688,64.6426187 C81.5324877,65.1537825 82.8494454,66.1602209 83.574586,66.8798806 L87.1828485,70.4599646 C87.9079891,71.1800118 89.0935611,71.1800118 89.8179266,70.4599646 L93.4269643,66.8791055 C94.1521049,66.1602209 95.4678999,65.1533949 96.3531063,64.6426187 L105.392366,59.4244079 C106.276797,58.9132441 107,57.6607185 107,56.6387785 L107,38.9921964 C107,37.9702564 106.276797,36.7169557 105.392366,36.2069546 L90.1089905,27.3830822 Z" id="logo"></path>
            </g>
        </g>
    </g>
</svg>