<?xml version="1.0" encoding="UTF-8"?>
<svg width="105px" height="32px" viewBox="0 0 105 32" version="1.1" xmlns="http://www.w3.org/2000/svg" xmlns:xlink="http://www.w3.org/1999/xlink">
    <!-- Generator: Sketch 53.2 (72643) - https://sketchapp.com -->
    <title>logo-mark-dark</title>
    <desc>Created with Sketch.</desc>
    <g id="Sign-up" stroke="none" stroke-width="1" fill="none" fill-rule="evenodd">
        <g id="Sign-up-/-0-Sign-up_Step-One-(Default)" transform="translate(-123.000000, -40.000000)" fill="#08080F">
            <g id="formInput">
                <g id="logo" transform="translate(123.000000, 40.000000)">
                    <path d="M102.647015,14.357193 L96.4729711,14.357193 C96.4280398,14.357193 96.3864191,14.3380117 96.3570955,14.302924 C96.3291907,14.2683041 96.3173667,14.2243275 96.3272989,14.1812865 C96.7014117,12.419883 98.0143538,11.237193 99.6006677,11.237193 C101.951761,11.237193 102.604448,13.2385965 102.778971,14.1447953 C102.797417,14.2711111 102.726945,14.357193 102.647015,14.357193 L102.647015,14.357193 Z M99.6403965,9.39906433 C96.6120219,9.39906433 94.2415372,11.9698246 94.2415372,15.2516959 C94.2415372,18.5681871 96.6309404,21.0683041 99.8007306,21.0683041 C102.174053,21.0683041 103.521994,19.9595322 104.4315,18.9915789 C104.534133,18.8849123 104.58805,18.7384795 104.578591,18.5915789 C104.571497,18.4446784 104.503863,18.3061988 104.392717,18.2084211 L103.710706,17.6156725 C103.493617,17.4266667 103.137003,17.4435088 102.938832,17.6530994 C102.03311,18.6149708 101.049823,19.0645614 99.8390405,19.0645614 C98.4286683,19.0645614 96.8574891,18.1700585 96.4668226,16.1761404 L104.307584,16.1761404 C104.58805,16.1761404 104.823112,15.9670175 104.856693,15.6909942 C104.876084,15.5118129 104.878922,15.4416374 104.878922,15.234386 C104.878922,11.7990643 102.723635,9.39906433 99.6403965,9.39906433 L99.6403965,9.39906433 Z" id="e"></path>
                    <path d="M91.518223,5.18853801 L90.5377731,5.18853801 C90.2331857,5.18853801 89.9848807,5.4414448 89.9848807,5.75108733 L89.9848807,20.6096015 C89.9848807,20.9211672 90.2331857,21.1726316 90.5377731,21.1726316 L91.518223,21.1726316 C91.8228104,21.1726316 92.0730072,20.9211672 92.0730072,20.6096015 L92.0730072,5.75108733 C92.0730072,5.4414448 91.8228104,5.18853801 91.518223,5.18853801" id="l"></path>
                    <path d="M87.7671627,17.5160234 C87.5477084,17.3246784 87.1863656,17.3461988 86.9877216,17.5623392 C86.0914589,18.5583626 85.0807395,19.0645614 83.9811033,19.0645614 C81.9322326,19.0645614 80.3279461,17.3639766 80.3279461,15.1950877 C80.3279461,13.0692398 81.8958145,11.4032749 83.8983349,11.4032749 C85.1658726,11.4032749 86.0172039,12.0035088 86.908264,12.9026901 C87.118732,13.114152 87.49048,13.114152 87.7033129,12.9008187 L88.4028234,12.1859649 C88.6099807,11.9730994 88.6109266,11.6414035 88.4032964,11.4266667 C87.4838586,10.4825731 86.1434847,9.39906433 83.9200912,9.39906433 C80.7446254,9.39906433 78.160835,12.0334503 78.160835,15.2727485 C78.160835,18.4690058 80.7446254,21.0683041 83.9200912,21.0683041 C85.7391024,21.0683041 87.1518394,20.3946199 88.4983617,18.8816374 C88.5962648,18.7726316 88.6454528,18.6318129 88.6359936,18.4849123 C88.6279532,18.3412865 88.5584279,18.2037427 88.4501196,18.1092398 L87.7671627,17.5160234" id="c"></path>
                    <path d="M75.4417774,9.39906433 L74.4580168,9.39906433 C74.1520105,9.39906433 73.9041785,9.65687249 73.9041785,9.97421268 L73.9041785,20.5964992 C73.9041785,20.9153154 74.1520105,21.1726316 74.4580168,21.1726316 L75.4417774,21.1726316 C75.7473107,21.1726316 75.9946698,20.9153154 75.9946698,20.5964992 L75.9946698,9.97421268 C75.9946698,9.65687249 75.7473107,9.39906433 75.4417774,9.39906433" id="i"></path>
                    <path d="M66.2994252,11.3335673 C68.0148578,11.3335673 69.7492088,12.6547368 69.7492088,15.1824561 C69.7492088,17.4388304 68.3624847,18.9536842 66.2994252,18.9536842 C64.5622364,18.9536842 62.6897805,17.4884211 62.6897805,15.1235088 C62.6897805,12.7819883 64.5622364,11.3335673 66.2994252,11.3335673 L66.2994252,11.3335673 Z M66.4020579,9.30877193 C65.0077664,9.30877193 63.7799575,9.81403509 62.7474818,10.8156725 L62.7474818,5.73590643 C62.7474818,5.43461988 62.4991769,5.18853801 62.1945895,5.18853801 L61.2150855,5.18853801 C60.9095522,5.18853801 60.6612472,5.43461988 60.6612472,5.73590643 L60.6612472,15.0991813 C60.6612472,18.9592982 63.5486792,20.9780117 66.4020579,20.9780117 C69.1135481,20.9780117 71.9186847,18.7810526 71.9186847,15.1047953 C71.9186847,11.4762573 69.1135481,9.30877193 66.4020579,9.30877193 L66.4020579,9.30877193 Z" id="b"></path>
                    <path d="M57.4838896,9.39906433 L56.4698595,9.39906433 C56.1633802,9.39906433 55.9169671,9.64467836 55.9169671,9.94596491 L55.9169671,16.1452632 C55.9169671,18.0320468 54.8703025,19.1581287 53.1198708,19.1581287 L52.8091349,19.1581287 C51.0568113,19.1581287 50.0110927,18.0320468 50.0110927,16.1452632 L50.0110927,9.94596491 C50.0110927,9.64467836 49.7637336,9.39906433 49.4586733,9.39906433 L48.4441701,9.39906433 C48.1391098,9.39906433 47.8912778,9.64467836 47.8912778,9.94596491 L47.8912778,16.3305263 C47.8912778,19.2264327 49.8115028,21.1726316 52.6677193,21.1726316 L53.2674349,21.1726316 C56.1203407,21.1726316 58.0377279,19.2264327 58.0377279,16.3305263 L58.0377279,9.94596491 C58.0377279,9.64467836 57.789423,9.39906433 57.4838896,9.39906433" id="u"></path>
                    <path d="M39.7918064,19.0439766 C37.8257041,19.0439766 36.3410769,17.3887719 36.3410769,15.1950877 C36.3410769,12.9396491 37.7287469,11.4238596 39.7918064,11.4238596 C41.5323059,11.4238596 43.4080726,12.8877193 43.4080726,15.2516959 C43.4080726,17.5936842 41.5323059,19.0439766 39.7918064,19.0439766 L39.7918064,19.0439766 Z M39.6924844,9.39906433 C36.9800483,9.39906433 34.1753846,11.5964912 34.1753846,15.2727485 C34.1753846,18.9003509 36.9800483,21.0683041 39.6924844,21.0683041 C41.1231939,21.0683041 42.3519488,20.6121637 43.3451686,19.7106433 L43.3451686,23.451462 C43.3451686,23.754152 43.5939466,23.9983626 43.898061,23.9983626 L44.8804027,23.9983626 C45.1845172,23.9983626 45.4323492,23.754152 45.4323492,23.451462 L45.4323492,15.2414035 C45.4323492,11.405614 42.5453902,9.39906433 39.6924844,9.39906433 L39.6924844,9.39906433 Z" id="q"></path>
                    <path d="M21.5484075,18.3210209 C21.5484075,19.0531272 21.0238813,19.9528977 20.3815757,20.3190899 L14.6595746,23.5870144 C14.4737698,23.6937857 14.2514225,23.7652446 14.0161447,23.8100107 L14.0108038,15.3517223 L21.4174165,11.1114562 C21.4980912,11.3380671 21.5484075,11.5680146 21.5484075,11.7846158 L21.5484075,18.3210209 L21.5484075,18.3210209 Z M12.3261923,23.5870144 L6.6039101,20.3190899 C5.96216671,19.9528977 5.43764057,19.0531272 5.43764057,18.3210209 L5.43764057,11.7846158 C5.43764057,11.5669024 5.48823795,11.3350085 5.57031814,11.1058951 L12.9620327,15.3511662 L12.9682168,23.8094546 C12.7337823,23.7646885 12.5122782,23.6929515 12.3261923,23.5870144 L12.3261923,23.5870144 Z M6.6039101,9.78543455 L12.3261923,6.51806616 C12.9682168,6.15187399 14.0181123,6.15187399 14.6595746,6.51806616 L20.3815757,9.78543455 C20.5642885,9.89025949 20.7354763,10.0404066 20.888955,10.2150222 L13.4865588,14.4536201 L6.09934182,10.2114075 C6.25338272,10.0387383 6.42260283,9.88970339 6.6039101,9.78543455 L6.6039101,9.78543455 Z M25.7772238,6.71297938 L14.6924629,0.382053424 C14.0504384,0.0155832051 13.0005429,0.0155832051 12.3593617,0.382053424 L1.27431977,6.71297938 C0.632857475,7.0788935 0.107769145,7.97810798 0.107769145,8.71132646 L0.107769145,21.3723442 C0.107769145,22.1055627 0.632857475,23.0042211 1.27431977,23.3709694 L7.83033429,27.1149159 C8.47207768,27.4816641 9.42724371,28.2037606 9.95317533,28.7200999 L12.5701841,31.288728 C13.0961157,31.8053454 13.95599,31.8053454 14.4813594,31.288728 L17.0989304,28.7195438 C17.624862,28.2037606 18.5791847,27.4813861 19.2212092,27.1149159 L25.7772238,23.3709694 C26.418686,23.0042211 26.9432122,22.1055627 26.9432122,21.3723442 L26.9432122,8.71132646 C26.9432122,7.97810798 26.418686,7.0788935 25.7772238,6.71297938 L25.7772238,6.71297938 Z"></path>
                </g>
            </g>
        </g>
    </g>
</svg>